<?xml version="1.0" encoding="UTF-8"?>
<!DOCTYPE svg PUBLIC "-//W3C//DTD SVG 1.0//EN" "http://www.w3.org/TR/2001/REC-SVG-20010904/DTD/svg10.dtd">
<!-- Creator: CorelDRAW 2020 (64-Bit) -->
<svg xmlns="http://www.w3.org/2000/svg" xml:space="preserve" width="745px" height="584px" version="1.0" shape-rendering="geometricPrecision" text-rendering="geometricPrecision" image-rendering="optimizeQuality" fill-rule="evenodd" clip-rule="evenodd"
viewBox="0 0 8152000 6386000"
 xmlns:xlink="http://www.w3.org/1999/xlink"
 xmlns:xodm="http://www.corel.com/coreldraw/odm/2003">
 <g id="Layer_x0020_1">
  <metadata id="CorelCorpID_0Corel-Layer"/>
  <g id="_2507914847824">
   <g id="_1610392809904">
    <path fill="#28176A" d="M2513000 1041000c-73000,-6000 -107000,-26000 -192000,-35000 -434000,-46000 -772000,-12000 -1167000,178000 -1116000,535000 -1551000,1961000 -724000,3075000 40000,54000 79000,88000 110000,134000l-150000 374000c-165000,413000 -339000,883000 -339000,1355000 0,309000 171000,262000 314000,262000 145000,0 419000,-281000 486000,-335000 41000,-32000 57000,-37000 95000,-80000l322000 -359000c69000,-81000 421000,-511000 441000,-588000l402000 17000c605000,0 1162000,-345000 1497000,-754000 134000,-164000 184000,-280000 284000,-468000 1182000,0 2439000,15000 3615000,1000 373000,-5000 645000,-236000 645000,-560000l0 -478000c-14000,-161000 -59000,-303000 -187000,-417000 -110000,-97000 -256000,-153000 -459000,-153000l-3614000 1000c-27000,-117000 -162000,-313000 -227000,-402000 -117000,-161000 -105000,-10000 37000,-434000 95000,-285000 375000,-1037000 162000,-1302000 -293000,-365000 -1201000,744000 -1351000,968000l0 0z"/>
    <path fill="#069446" d="M1712000 4969000c87000,-145000 214000,-306000 311000,-454000 52000,-79000 253000,-414000 301000,-458000 -307000,-11000 -200000,-27000 -340000,-45000 -97000,-12000 -62000,24000 -130000,-8000 -31000,-15000 -73000,-49000 -124000,-68000 -169000,-60000 -318000,61000 -341000,-410000 -138000,-93000 -191000,-163000 -235000,-184000 -118000,-55000 -89000,-25000 -240000,-178000 -19000,-19000 -72000,-90000 -89000,-121000 -70000,-126000 27000,-22000 -108000,-206000 -54000,-73000 -81000,-149000 -91000,-243000 163000,58000 340000,31000 400000,38000 63000,9000 34000,18000 79000,26000 147000,29000 140000,-179000 455000,-369000 184000,-111000 155000,45000 192000,-262000 204000,-63000 26000,-46000 252000,-98000 211000,-49000 117000,8000 282000,-27000l13000 112000c321000,0 332000,30000 579000,128000 105000,41000 172000,45000 194000,156000 20000,104000 40000,197000 35000,311000 60000,-78000 164000,-332000 209000,-433000l142000 -328000c30000,-78000 14000,-85000 76000,-108000 11000,62000 -166000,430000 -207000,518000l-236000 519000c-18000,212000 -122000,143000 -78000,400000 41000,234000 -25000,192000 -97000,363000 -61000,144000 -64000,223000 -162000,344000 -38000,47000 -91000,67000 -129000,116000 -55000,73000 -32000,132000 -60000,186000 -74000,-18000 -67000,-44000 -192000,-123000 -11000,11000 -604000,898000 -613000,920000 1690000,118000 2032000,-1194000 2132000,-1216000 119000,-28000 3101000,31000 3719000,-4000 194000,-10000 327000,-117000 401000,-226000 115000,-170000 102000,-288000 102000,-523000 0,-223000 9000,-354000 -93000,-515000 -69000,-108000 -209000,-223000 -393000,-236000 -383000,-26000 -863000,-1000 -1257000,-1000 -832000,-1000 -1664000,-1000 -2497000,-1000 -225000,-561000 -772000,-1055000 -1458000,-1194000 -860000,-173000 -1539000,245000 -1909000,674000 -692000,804000 -594000,2141000 273000,2813000 216000,168000 578000,388000 932000,415000l0 0z"/>
    <path fill="#28176A" d="M3882000 2453000c-195000,38000 -343000,139000 -391000,318000 -46000,175000 -27000,493000 57000,622000 192000,291000 761000,207000 1199000,207000 228000,0 2652000,18000 2813000,-9000 182000,-31000 337000,-153000 380000,-318000 45000,-175000 31000,-493000 -54000,-621000 -95000,-142000 -261000,-213000 -484000,-213000 -400000,0 -3334000,-23000 -3520000,14000l0 0z"/>
    <path fill="#069446" d="M2338000 4009000c99000,-106000 654000,-1114000 719000,-1294000 8000,-157000 14000,-168000 -14000,-318000 -34000,-179000 -1000,-145000 -161000,-207000 -268000,-103000 -266000,-135000 -614000,-135000l-20000 -103000c-105000,25000 -105000,-10000 -233000,22000 -91000,23000 -99000,9000 -219000,97000 -40000,377000 -121000,55000 -439000,451000 -55000,68000 -155000,206000 -255000,189000 -56000,-9000 -19000,-17000 -77000,-29000l-332000 -13000c17000,148000 93000,125000 132000,252000 39000,129000 185000,296000 252000,342000 50000,33000 79000,22000 132000,59000 74000,53000 7000,36000 223000,177000 1000,107000 1000,222000 53000,298000 82000,117000 139000,47000 267000,100000 38000,16000 92000,51000 113000,59000l473000 53000 0 0z"/>
    <path fill="#069446" d="M1659000 5022000c-130000,-66000 -600000,-105000 -1022000,-533000 -49000,-49000 -1000,-22000 -71000,-52000 -35000,129000 -877000,2055000 -246000,1921000 364000,-78000 1222000,-1091000 1339000,-1336000z"/>
    <path fill="#90D3B1" d="M2561000 1041000c3000,3000 9000,2000 11000,8000l47000 25000c317000,125000 397000,132000 712000,388000 70000,57000 152000,153000 212000,188000 62000,-86000 635000,-1575000 173000,-1603000 -346000,-22000 -974000,775000 -1155000,994000z"/>
    <path fill="#E82A22" d="M1846000 3702000l142000 82000c49000,-49000 71000,-138000 109000,-208000l104000 208000c64000,-24000 96000,-57000 154000,-87000 -30000,-73000 -172000,-271000 -163000,-325000 25000,-152000 319000,-463000 188000,-802000 -130000,-341000 -453000,-296000 -563000,11000 -117000,327000 123000,560000 187000,783000 17000,59000 -126000,249000 -158000,338000l0 0z"/>
    <path fill="#FEFDFE" d="M4835000 3398000l209000 0 0 -367000c243000,251000 122000,378000 402000,367000l63000 -5000 0 -687000 -205000 -6000 0 369000 -260000 -369000 -209000 0 0 698000 0 0z"/>
    <path fill="#FEFDFE" d="M5655000 3398000l202000 -6000 -1000 -349000c5000,3000 10000,3000 12000,10000 2000,7000 9000,8000 12000,10000l113000 154000c41000,60000 88000,116000 116000,181000l210000 0 0 -698000 -209000 0 -1000 357000c-64000,-63000 -113000,-156000 -171000,-239000 -106000,-152000 -50000,-118000 -283000,-118000l0 698000 0 0z"/>
    <path fill="#FEFDFE" d="M6458000 3398000l227000 0 0 -262000c148000,0 343000,14000 367000,-175000 43000,-330000 -248000,-261000 -594000,-261000l0 698000 0 0z"/>
    <path fill="#FEFDFE" d="M4113000 2846000l336000 0c-64000,89000 -145000,166000 -221000,242000 -42000,42000 -72000,72000 -112000,116000 -66000,70000 -46000,67000 -46000,190000l676000 3000 0 -154000 -400000 -2000 329000 -352000c73000,-74000 55000,-55000 55000,-189000l-617000 0 0 146000 0 0z"/>
    <path fill="#28176A" d="M2324000 4057000l14000 -48000 -473000 -53000c-21000,-8000 -75000,-43000 -113000,-59000 -128000,-53000 -185000,17000 -267000,-100000 -52000,-76000 -52000,-191000 -53000,-298000 -216000,-141000 -149000,-124000 -223000,-177000 -52000,-37000 -82000,-26000 -132000,-59000 -67000,-46000 -213000,-213000 -252000,-342000 -39000,-127000 -115000,-104000 -132000,-252000l332000 13000c58000,12000 21000,20000 77000,29000 100000,17000 200000,-121000 255000,-189000 318000,-396000 399000,-74000 439000,-451000 120000,-88000 128000,-74000 219000,-97000 128000,-32000 128000,3000 233000,-22000l20000 103000c348000,0 346000,32000 614000,135000 160000,62000 127000,28000 161000,207000 28000,150000 22000,161000 14000,318000l50000 -106000c5000,-114000 -15000,-207000 -35000,-311000 -22000,-111000 -89000,-115000 -194000,-156000 -247000,-98000 -258000,-128000 -579000,-128000l-13000 -112000c-165000,35000 -71000,-22000 -282000,27000 -226000,52000 -48000,35000 -252000,98000 -37000,307000 -8000,151000 -192000,262000 -315000,190000 -308000,398000 -455000,369000 -45000,-8000 -16000,-17000 -79000,-26000 -60000,-7000 -237000,20000 -400000,-38000 10000,94000 37000,170000 91000,243000 135000,184000 38000,80000 108000,206000 17000,31000 70000,102000 89000,121000 151000,153000 122000,123000 240000,178000 44000,21000 97000,91000 235000,184000 23000,471000 172000,350000 341000,410000 51000,19000 93000,53000 124000,68000 68000,32000 33000,-4000 130000,8000 140000,18000 33000,34000 340000,45000l0 0z"/>
    <path fill="#069446" d="M2091000 3239000c57000,-49000 196000,-314000 219000,-410000 123000,-519000 -522000,-560000 -421000,-12000 26000,136000 148000,316000 202000,422000l0 0z"/>
    <path fill="#069446" d="M2391000 4031000c74000,23000 79000,33000 117000,87000l19000 -22000c75000,-112000 -4000,-78000 150000,-202000 134000,-109000 166000,-313000 276000,-509000 67000,-117000 3000,-199000 -5000,-336000l-557000 982000z"/>
    <path fill="#FEFDFE" d="M3107000 2609000l-50000 106000c-65000,180000 -620000,1188000 -719000,1294000l-14000 48000c-48000,44000 -249000,379000 -301000,458000 -97000,148000 -224000,309000 -311000,454000l48000 14000c9000,-22000 602000,-909000 613000,-920000l18000 -32000 557000 -982000 143000 -272000 236000 -519000c41000,-88000 218000,-456000 207000,-518000 -62000,23000 -46000,30000 -76000,108000l-142000 328000c-45000,101000 -149000,355000 -209000,433000l0 0z"/>
    <polygon fill="#FEFDFE" points="7339000,2962000 7157000,2962000 7157000,3122000 7334000,3122000 7339000,3304000 7495000,3312000 7496000,3127000 7681000,3122000 7680000,2962000 7495000,2959000 7495000,2787000 7338000,2790000 "/>
    <path fill="#28176A" d="M2948000 3049000c8000,137000 72000,219000 5000,336000 -110000,196000 -142000,400000 -276000,509000 -154000,124000 -75000,90000 -150000,202000l-19000 22000c-38000,-54000 -43000,-64000 -117000,-87000l-18000 32000c125000,79000 118000,105000 192000,123000 28000,-54000 5000,-113000 60000,-186000 38000,-49000 91000,-69000 129000,-116000 98000,-121000 101000,-200000 162000,-344000 72000,-171000 138000,-129000 97000,-363000 -44000,-257000 60000,-188000 78000,-400000l-143000 272000 0 0z"/>
    <path fill="#28176A" d="M6685000 2996000c86000,-1000 101000,-1000 152000,-40000l6000 -81000c-31000,-17000 -52000,-35000 -105000,-35000l-53000 0 0 156000 0 0z"/>
   </g>
  </g>
 </g>
</svg>
